<svg width="54" height="42" viewBox="0 0 54 42" fill="none" xmlns="http://www.w3.org/2000/svg">
<path d="M53.9375 10.3594C53.9375 12.4707 52.2852 14.0312 50.2656 14.0312C50.1738 14.0312 50.1738 14.0312 50.1738 14.0312L45.4922 39.5508C45.3086 40.9277 44.0234 41.9375 42.6465 41.9375H12.2617C10.8848 41.9375 9.59961 40.9277 9.41602 39.5508L4.73438 14.0312C4.73438 14.0312 4.73438 14.0312 4.64258 14.0312C2.62305 14.0312 0.970703 12.4707 0.970703 10.3594C0.970703 8.33984 2.62305 6.6875 4.64258 6.6875C6.57031 6.6875 8.31445 8.33984 8.31445 10.3594C8.31445 11.1855 7.94727 11.9199 7.48828 12.5625L15.75 19.1719C17.2188 20.2734 19.3301 19.8145 20.1562 18.1621L25.4805 7.60547C24.4707 6.96289 23.7363 5.86133 23.7363 4.48438C23.7363 2.46484 25.3887 0.8125 27.5 0.8125C29.5195 0.8125 31.0801 2.46484 31.0801 4.48438C31.0801 5.86133 30.3457 6.96289 29.2441 7.60547L34.5684 18.1621C35.3945 19.8145 37.5977 20.2734 39.0664 19.1719L47.2363 12.5625C46.8691 11.9199 46.5938 11.1855 46.5938 10.3594C46.5938 8.33984 48.1543 6.6875 50.2656 6.6875C52.2852 6.6875 53.9375 8.33984 53.9375 10.3594Z" fill="#FEB104"/>
<path d="M21.0916 24.3636V36H18.6314V26.6988H18.5632L15.8984 28.3693V26.1875L18.7791 24.3636H21.0916Z" fill="white"/>
<path d="M28.4341 25.328H32.1941V22.656H34.1141V25.328H38.1141V27.136H28.4341V25.328ZM32.3861 34.016L30.4981 34.416C30.4501 32.864 30.0501 30.208 29.5381 28.16L31.2501 27.856C31.7941 29.872 32.2741 32.448 32.3861 34.016ZM27.0101 22.48L28.7861 23.072C28.3701 24.096 27.8581 25.152 27.2821 26.16V37.344H25.4741V28.88C25.0421 29.44 24.6101 29.936 24.1621 30.384C23.9861 29.92 23.4741 28.864 23.1541 28.4C24.6741 26.992 26.1461 24.752 27.0101 22.48ZM35.2021 34.928H38.4501V36.72H28.1141V34.928H33.3621C33.9861 32.976 34.6421 30.016 34.8981 27.76L36.9781 28.096C36.5141 30.416 35.8261 33.056 35.2021 34.928Z" fill="white"/>
</svg>
