<svg width="54" height="42" viewBox="0 0 54 42" fill="none" xmlns="http://www.w3.org/2000/svg">
<path d="M53.9375 10.3594C53.9375 12.4707 52.2852 14.0312 50.2656 14.0312C50.1738 14.0312 50.1738 14.0312 50.1738 14.0312L45.4922 39.5508C45.3086 40.9277 44.0234 41.9375 42.6465 41.9375H12.2617C10.8848 41.9375 9.59961 40.9277 9.41602 39.5508L4.73438 14.0312C4.73438 14.0312 4.73438 14.0312 4.64258 14.0312C2.62305 14.0312 0.970703 12.4707 0.970703 10.3594C0.970703 8.33984 2.62305 6.6875 4.64258 6.6875C6.57031 6.6875 8.31445 8.33984 8.31445 10.3594C8.31445 11.1855 7.94727 11.9199 7.48828 12.5625L15.75 19.1719C17.2188 20.2734 19.3301 19.8145 20.1562 18.1621L25.4805 7.60547C24.4707 6.96289 23.7363 5.86133 23.7363 4.48438C23.7363 2.46484 25.3887 0.8125 27.5 0.8125C29.5195 0.8125 31.0801 2.46484 31.0801 4.48438C31.0801 5.86133 30.3457 6.96289 29.2441 7.60547L34.5684 18.1621C35.3945 19.8145 37.5977 20.2734 39.0664 19.1719L47.2363 12.5625C46.8691 11.9199 46.5938 11.1855 46.5938 10.3594C46.5938 8.33984 48.1543 6.6875 50.2656 6.6875C52.2852 6.6875 53.9375 8.33984 53.9375 10.3594Z" fill="#AFBBBC"/>
<path d="M15.4042 36V34.2273L19.5462 30.392C19.8985 30.0511 20.1939 29.7443 20.4326 29.4716C20.675 29.1988 20.8587 28.9318 20.9837 28.6704C21.1087 28.4053 21.1712 28.1193 21.1712 27.8125C21.1712 27.4716 21.0936 27.178 20.9383 26.9318C20.783 26.6818 20.5708 26.4905 20.3019 26.3579C20.033 26.2216 19.728 26.1534 19.3871 26.1534C19.0311 26.1534 18.7205 26.2254 18.4553 26.3693C18.1901 26.5132 17.9856 26.7197 17.8417 26.9886C17.6977 27.2576 17.6258 27.5776 17.6258 27.9488H15.2905C15.2905 27.1875 15.4629 26.5265 15.8076 25.9659C16.1523 25.4053 16.6352 24.9716 17.2564 24.6648C17.8776 24.3579 18.5936 24.2045 19.4042 24.2045C20.2375 24.2045 20.9629 24.3523 21.5803 24.6477C22.2015 24.9394 22.6845 25.3447 23.0292 25.8636C23.3739 26.3826 23.5462 26.9773 23.5462 27.6477C23.5462 28.0871 23.4591 28.5208 23.2848 28.9488C23.1144 29.3769 22.8095 29.8523 22.3701 30.375C21.9307 30.8939 21.3114 31.517 20.5121 32.2443L18.8133 33.9091V33.9886H23.6996V36H15.4042Z" fill="white"/>
<path d="M30.0591 25.328H33.8191V22.656H35.7391V25.328H39.7391V27.136H30.0591V25.328ZM34.0111 34.016L32.1231 34.416C32.0751 32.864 31.6751 30.208 31.1631 28.16L32.8751 27.856C33.4191 29.872 33.8991 32.448 34.0111 34.016ZM28.6351 22.48L30.4111 23.072C29.9951 24.096 29.4831 25.152 28.9071 26.16V37.344H27.0991V28.88C26.6671 29.44 26.2351 29.936 25.7871 30.384C25.6111 29.92 25.0991 28.864 24.7791 28.4C26.2991 26.992 27.7711 24.752 28.6351 22.48ZM36.8271 34.928H40.0751V36.72H29.7391V34.928H34.9871C35.6111 32.976 36.2671 30.016 36.5231 27.76L38.6031 28.096C38.1391 30.416 37.4511 33.056 36.8271 34.928Z" fill="white"/>
</svg>
