<svg width="54" height="42" viewBox="0 0 54 42" fill="none" xmlns="http://www.w3.org/2000/svg">
<path d="M53.9375 10.3594C53.9375 12.4707 52.2852 14.0312 50.2656 14.0312C50.1738 14.0312 50.1738 14.0312 50.1738 14.0312L45.4922 39.5508C45.3086 40.9277 44.0234 41.9375 42.6465 41.9375H12.2617C10.8848 41.9375 9.59961 40.9277 9.41602 39.5508L4.73438 14.0312C4.73438 14.0312 4.73438 14.0312 4.64258 14.0312C2.62305 14.0312 0.970703 12.4707 0.970703 10.3594C0.970703 8.33984 2.62305 6.6875 4.64258 6.6875C6.57031 6.6875 8.31445 8.33984 8.31445 10.3594C8.31445 11.1855 7.94727 11.9199 7.48828 12.5625L15.75 19.1719C17.2188 20.2734 19.3301 19.8145 20.1562 18.1621L25.4805 7.60547C24.4707 6.96289 23.7363 5.86133 23.7363 4.48438C23.7363 2.46484 25.3887 0.8125 27.5 0.8125C29.5195 0.8125 31.0801 2.46484 31.0801 4.48438C31.0801 5.86133 30.3457 6.96289 29.2441 7.60547L34.5684 18.1621C35.3945 19.8145 37.5977 20.2734 39.0664 19.1719L47.2363 12.5625C46.8691 11.9199 46.5938 11.1855 46.5938 10.3594C46.5938 8.33984 48.1543 6.6875 50.2656 6.6875C52.2852 6.6875 53.9375 8.33984 53.9375 10.3594Z" fill="#BB6726"/>
<path d="M19.4709 36.1591C18.6224 36.1591 17.8668 36.0132 17.2039 35.7216C16.5448 35.4261 16.024 35.0208 15.6414 34.5057C15.2626 33.9867 15.0675 33.3882 15.0562 32.7102H17.5334C17.5486 32.9943 17.6414 33.2443 17.8118 33.4602C17.9861 33.6723 18.2171 33.8371 18.505 33.9545C18.7929 34.072 19.1168 34.1307 19.4766 34.1307C19.8516 34.1307 20.183 34.0644 20.4709 33.9318C20.7588 33.7992 20.9842 33.6155 21.1471 33.3807C21.3099 33.1458 21.3914 32.875 21.3914 32.5682C21.3914 32.2576 21.3043 31.9829 21.13 31.7443C20.9596 31.5019 20.7133 31.3125 20.3914 31.1761C20.0732 31.0398 19.6944 30.9716 19.255 30.9716H18.1698V29.1648H19.255C19.6262 29.1648 19.9539 29.1004 20.238 28.9716C20.5258 28.8428 20.7493 28.6648 20.9084 28.4375C21.0675 28.2064 21.1471 27.9375 21.1471 27.6307C21.1471 27.339 21.077 27.0833 20.9368 26.8636C20.8005 26.6401 20.6073 26.4659 20.3573 26.3409C20.1111 26.2159 19.8232 26.1534 19.4937 26.1534C19.1603 26.1534 18.8554 26.214 18.5789 26.3352C18.3024 26.4526 18.0808 26.6212 17.9141 26.8409C17.7474 27.0606 17.6584 27.3182 17.6471 27.6136H15.2891C15.3005 26.9432 15.4918 26.3523 15.863 25.8409C16.2342 25.3295 16.7342 24.9299 17.363 24.642C17.9955 24.3504 18.7096 24.2045 19.505 24.2045C20.308 24.2045 21.0107 24.3504 21.613 24.642C22.2152 24.9337 22.683 25.3276 23.0164 25.8238C23.3535 26.3163 23.5202 26.8693 23.5164 27.4829C23.5202 28.1345 23.3175 28.678 22.9084 29.1136C22.5031 29.5492 21.9747 29.8257 21.3232 29.9432V30.0341C22.1793 30.1439 22.8308 30.4413 23.2777 30.9261C23.7285 31.4072 23.952 32.0094 23.9482 32.7329C23.952 33.3958 23.7607 33.9848 23.3743 34.5C22.9918 35.0151 22.4633 35.4204 21.7891 35.7159C21.1149 36.0113 20.3421 36.1591 19.4709 36.1591Z" fill="white"/>
<path d="M30.2935 25.328H34.0535V22.656H35.9735V25.328H39.9735V27.136H30.2935V25.328ZM34.2455 34.016L32.3575 34.416C32.3095 32.864 31.9095 30.208 31.3975 28.16L33.1095 27.856C33.6535 29.872 34.1335 32.448 34.2455 34.016ZM28.8695 22.48L30.6455 23.072C30.2295 24.096 29.7175 25.152 29.1415 26.16V37.344H27.3335V28.88C26.9015 29.44 26.4695 29.936 26.0215 30.384C25.8455 29.92 25.3335 28.864 25.0135 28.4C26.5335 26.992 28.0055 24.752 28.8695 22.48ZM37.0615 34.928H40.3095V36.72H29.9735V34.928H35.2215C35.8455 32.976 36.5015 30.016 36.7575 27.76L38.8375 28.096C38.3735 30.416 37.6855 33.056 37.0615 34.928Z" fill="white"/>
</svg>
